<svg width="56" height="51" viewBox="0 0 56 51" fill="none" xmlns="http://www.w3.org/2000/svg">
<path d="M6.54125 24.3265C3.27573 24.5229 -2.38614 24.0466 1.09053 20.5699L26.208 0.461174C26.9691 -0.0544342 29.007 -0.570043 31.0695 1.49239L54.3455 19.9807C56.1379 21.4293 57.7191 24.3265 49.705 24.3265C49.4349 29.8263 47.0533 42.0782 39.6875 47.087L36.3729 36.7748C39.0737 32.8709 42.6485 23.7962 35.3416 18.7285C32.6654 16.5433 25.8397 13.484 19.947 18.7285C16.657 21.3066 11.8888 28.5251 19.1368 36.7748L15.9695 47.087C12.5567 44.1652 5.8931 35.5225 6.54125 24.3265Z" fill="white"/>
<path d="M20.9783 49.5914L25.3978 34.7124C23.3599 33.6812 19.7555 30.4549 21.6412 25.7997C22.9916 22.8288 27.4746 18.3409 33.2936 24.0863C34.8404 25.4121 36.7555 31.0102 30.1119 34.7124L34.6787 49.5914C31.9677 51.3399 23.7478 51.5949 20.9783 49.5914Z" fill="white"/>
</svg>
