<svg width="21" height="21" viewBox="0 0 21 21" fill="none" xmlns="http://www.w3.org/2000/svg">
<g clip-path="url(#clip0_23_2751)">
<path fill-rule="evenodd" clip-rule="evenodd" d="M10.5005 4.20092C8.61108 1.99905 5.45391 1.31858 3.08665 3.33483C0.719369 5.35107 0.386088 8.72212 2.24512 11.1068C3.79079 13.0894 8.46849 17.271 10.0016 18.6244C10.1731 18.7759 10.2588 18.8516 10.3589 18.8813C10.4462 18.9072 10.5417 18.9072 10.6291 18.8813C10.7291 18.8516 10.8148 18.7759 10.9864 18.6244C12.5195 17.271 17.1971 13.0894 18.7428 11.1068C20.6019 8.72212 20.3092 5.32986 17.9013 3.33483C15.4933 1.33979 12.3899 1.99905 10.5005 4.20092Z" stroke="#1A47FB" stroke-width="1.86667" stroke-linecap="round" stroke-linejoin="round"/>
</g>
<defs>
<clipPath id="clip0_23_2751">
<rect width="21" height="18.6667" fill="white" transform="translate(0 1.16675)"/>
</clipPath>
</defs>
</svg>
